<svg width="32" height="30" viewBox="0 0 32 30" fill="none" xmlns="http://www.w3.org/2000/svg">
<path d="M29.34 17.5177L31.9663 5.96216C32.1559 5.12783 31.5217 4.33333 30.6661 4.33333H8.84489L8.33567 1.84389C8.20878 1.22339 7.66278 0.777775 7.02939 0.777775H1.33333C0.596945 0.777775 0 1.37472 0 2.11111V3C0 3.73639 0.596945 4.33333 1.33333 4.33333H5.21572L9.11839 23.4131C8.18472 23.95 7.55556 24.9568 7.55556 26.1111C7.55556 27.8293 8.94845 29.2222 10.6667 29.2222C12.3849 29.2222 13.7778 27.8293 13.7778 26.1111C13.7778 25.2403 13.4196 24.4536 12.8431 23.8889H24.4902C23.9137 24.4536 23.5556 25.2403 23.5556 26.1111C23.5556 27.8293 24.9485 29.2222 26.6667 29.2222C28.3849 29.2222 29.7778 27.8293 29.7778 26.1111C29.7778 24.8793 29.0618 23.8149 28.0234 23.3108L28.3299 21.9622C28.5195 21.1278 27.8853 20.3333 27.0297 20.3333H12.1176L11.754 18.5556H28.0398C28.6624 18.5556 29.2021 18.1248 29.34 17.5177Z" fill="black"/>
</svg>
