<svg width="32" height="30" viewBox="0 0 32 30" fill="none" xmlns="http://www.w3.org/2000/svg">
<path d="M29.34 17.4229L31.9663 5.86731C32.1559 5.03298 31.5217 4.23848 30.6661 4.23848H8.84489L8.33567 1.74903C8.20878 1.12853 7.66278 0.682922 7.02939 0.682922H1.33333C0.596945 0.682922 0 1.27987 0 2.01626V2.90515C0 3.64153 0.596945 4.23848 1.33333 4.23848H5.21572L9.11839 23.3182C8.18473 23.8551 7.55556 24.8619 7.55556 26.0163C7.55556 27.7345 8.94845 29.1274 10.6667 29.1274C12.3849 29.1274 13.7778 27.7345 13.7778 26.0163C13.7778 25.1455 13.4196 24.3588 12.8431 23.794H24.4902C23.9137 24.3588 23.5556 25.1455 23.5556 26.0163C23.5556 27.7345 24.9485 29.1274 26.6667 29.1274C28.3849 29.1274 29.7778 27.7345 29.7778 26.0163C29.7778 24.7845 29.0618 23.72 28.0234 23.216L28.3299 21.8673C28.5195 21.033 27.8853 20.2385 27.0297 20.2385H12.1176L11.754 18.4607H28.0398C28.6624 18.4607 29.2021 18.0299 29.34 17.4229Z" fill="black"/>
</svg>
