<svg width="25" height="25" viewBox="0 0 25 25" fill="none" xmlns="http://www.w3.org/2000/svg">
<path d="M12.1094 24.2188C5.41992 24.2188 0 18.7988 0 12.1094C0 5.41992 5.41992 0 12.1094 0C18.7988 0 24.2188 5.41992 24.2188 12.1094C24.2188 18.7988 18.7988 24.2188 12.1094 24.2188ZM6.54785 12.9395L13.1641 19.5557C13.623 20.0146 14.3652 20.0146 14.8193 19.5557L15.6494 18.7256C16.1084 18.2666 16.1084 17.5244 15.6494 17.0703L10.6885 12.1094L15.6494 7.14844C16.1084 6.68945 16.1084 5.94727 15.6494 5.49316L14.8193 4.66309C14.3604 4.2041 13.6182 4.2041 13.1641 4.66309L6.54785 11.2793C6.08887 11.7383 6.08887 12.4805 6.54785 12.9395Z" fill="black"/>
</svg>
