<svg width="25" height="25" viewBox="0 0 25 25" fill="none" xmlns="http://www.w3.org/2000/svg">
<path d="M12.3281 0C19.0176 0 24.4375 5.41992 24.4375 12.1094C24.4375 18.7988 19.0176 24.2188 12.3281 24.2188C5.63867 24.2188 0.21875 18.7988 0.21875 12.1094C0.21875 5.41992 5.63867 0 12.3281 0ZM17.8896 11.2793L11.2734 4.66309C10.8145 4.2041 10.0723 4.2041 9.61816 4.66309L8.78809 5.49316C8.3291 5.95215 8.3291 6.69434 8.78809 7.14844L13.749 12.1094L8.78809 17.0703C8.3291 17.5293 8.3291 18.2715 8.78809 18.7256L9.61816 19.5557C10.0771 20.0146 10.8193 20.0146 11.2734 19.5557L17.8896 12.9395C18.3486 12.4805 18.3486 11.7383 17.8896 11.2793Z" fill="black"/>
</svg>
